<?xml version="1.0" standalone="no"?>
<!DOCTYPE svg PUBLIC "-//W3C//DTD SVG 1.1//EN" "http://www.w3.org/Graphics/SVG/1.1/DTD/svg11.dtd" >
<svg xmlns="http://www.w3.org/2000/svg">
<metadata>
This is a custom SVG webfont generated by Font Squirrel.
Copyright   : Copyright 1994 URW  SoftMaker Inc All rights reserved
</metadata>
<defs>
<font id="HandelGothicRegular" horiz-adv-x="1474" >
<font-face units-per-em="2048" ascent="1638" descent="-410" />
<missing-glyph horiz-adv-x="512" />
<glyph unicode=" "  horiz-adv-x="512" />
<glyph unicode="&#x09;" horiz-adv-x="512" />
<glyph unicode="&#xa0;" horiz-adv-x="512" />
<glyph unicode="!" horiz-adv-x="561" d="M135 0v231h291v-231h-291zM135 334v1032h291v-1032h-291z" />
<glyph unicode="&#x22;" horiz-adv-x="757" d="M80 1366h231l-47 -549h-137zM444 1366h232l-49 -549h-135z" />
<glyph unicode="#" d="M217 434l31 174h209l30 176h-206l30 174h207l72 408h174l-72 -408h182l70 408h178l-71 -408h204l-30 -174h-205l-31 -176h209l-31 -174h-209l-77 -434h-176l77 434h-182l-76 -434h-174l76 434h-209zM631 608h180l33 176h-182z" />
<glyph unicode="$" d="M96 969q0 143 88 257.5t209 131.5q61 8 201 8h61v197h168v-197h480v-244h-480v-305q143 0 189 -4q106 -10 182 -49q184 -94 184 -365q0 -121 -56 -221t-144 -139q-59 -25 -120 -32t-235 -7v-201h-168v201h-493v244h493v329q-78 0 -151 2q-193 6 -300.5 109t-107.5 285z M418 973q0 -131 141 -152q29 -4 96 -4v305q-139 -2 -188 -32.5t-49 -116.5zM823 244q80 2 119 12q49 12 81 53t32 94q0 164 -232 170v-329z" />
<glyph unicode="%" horiz-adv-x="1808" d="M80 1034q0 338 369 338q358 0 358 -350q0 -340 -348 -340q-379 0 -379 352zM281 1032q0 -203 163 -203q162 0 162 203q0 193 -166 193q-159 0 -159 -193zM537 0l550 1366h175l-551 -1366h-174zM997 344q0 338 371 338q358 0 358 -350q0 -340 -348 -340q-381 0 -381 352z M1198 342q0 -203 166 -203q162 0 162 203q0 193 -168 193q-160 0 -160 -193z" />
<glyph unicode="&#x26;" horiz-adv-x="1538" d="M72 1010q0 98 50 187t132 129t278 40h457v-244h-391q-193 0 -192 -151q0 -74 45 -120t116 -46h99v-244h-45q-119 0 -156 -26q-55 -41 -55 -127q0 -170 227 -170q158 0 246 76.5t129 246.5h-197v244h694v-244h-190q-102 -315 -262 -442t-457 -127q-219 0 -336 69 q-174 104 -174 336q0 217 172 283q-190 119 -190 330z" />
<glyph unicode="'" horiz-adv-x="393" d="M80 1366h231l-47 -549h-137z" />
<glyph unicode="(" horiz-adv-x="870" d="M90 487q0 496 256 730q90 82 183.5 114.5t273.5 42.5v-227q-223 -12 -320.5 -168t-97.5 -500q0 -319 94 -461.5t324 -164.5v-228q-344 23 -508 193q-205 212 -205 669z" />
<glyph unicode=")" horiz-adv-x="870" d="M68 -147q229 23 323 165t94 461q0 344 -97 500t-320 168v227q195 -10 300 -53t201 -150q211 -231 211 -684q0 -504 -252 -712q-152 -127 -460 -150v228z" />
<glyph unicode="*" horiz-adv-x="1169" d="M313 1120l49 131l156 -53l-4 168h139l-4 -168l156 53l49 -131l-160 -49l94 -131l-112 -80l-92 133l-92 -133l-115 80l96 131z" />
<glyph unicode="+" d="M240 586v223h383v365h231v-365h381v-223h-381v-367h-231v367h-383z" />
<glyph unicode="," horiz-adv-x="479" d="M90 -281l125 281h-90v266h248v-237l-158 -310h-125z" />
<glyph unicode="-" horiz-adv-x="477" d="M0 406v245h477v-245h-477z" />
<glyph unicode="." horiz-adv-x="458" d="M104 0v266h248v-266h-248z" />
<glyph unicode="/" horiz-adv-x="1091" d="M25 0l788 1366h256l-788 -1366h-256z" />
<glyph unicode="0" d="M63 696q0 678 668 678q348 0 514 -171t166 -531q0 -680 -643 -680q-360 0 -532.5 172t-172.5 532zM383 696q0 -219 68 -336q82 -139 303 -139q338 0 338 475q0 233 -97 344q-92 104 -264 105q-348 0 -348 -449z" />
<glyph unicode="1" horiz-adv-x="677" d="M193 0v1366h292v-1366h-292z" />
<glyph unicode="2" d="M143 0v362q0 236 117 351q63 61 150 80q51 10 174 10h223q117 0 166 31q68 41 67 120q0 170 -233 170h-641v242h702q266 0 373 -94q119 -106 119 -309q0 -256 -166 -347q-102 -55 -305 -55h-193q-154 0 -208 -41t-54 -158v-120h891v-242h-1182z" />
<glyph unicode="3" d="M176 0v242h586q117 0 167 36.5t50 122.5q0 92 -49 130t-168 38h-457v242h457q125 0 170 34t45 124q0 88 -66 131q-39 25 -149 24h-586v242h637q68 0 117 -2q164 -6 265 -109.5t101 -265.5q0 -193 -182 -297q184 -119 184 -330q0 -197 -147 -290q-76 -49 -180 -64 q-59 -8 -195 -8h-600z" />
<glyph unicode="4" d="M76 238v288l770 840h383v-887h180v-241h-180v-238h-291v238h-862zM401 479h537v584z" />
<glyph unicode="5" d="M162 0v242h598q156 0 217 35.5t61 125.5q0 125 -96 154q-43 12 -182 12h-598v797h1122v-242h-831v-313h432q240 0 338 -80q135 -109 135 -311q0 -270 -230 -371q-113 -49 -368 -49h-598z" />
<glyph unicode="6" d="M100 684q0 184 60.5 341t163.5 235q80 59 183 82.5t292 23.5h504v-242h-416q-109 0 -162 -4q-190 -14 -248 -106q-49 -78 -51 -209h461q137 0 190 -8q111 -16 174 -72q125 -111 125 -297q0 -246 -213 -367q-123 -70 -375 -69q-340 0 -491 141q-92 86 -144.5 233.5 t-52.5 317.5zM426 563q2 -193 82 -267.5t283 -74.5q143 0 204.5 40t61.5 136q0 166 -221 166h-410z" />
<glyph unicode="7" d="M172 1124v242h1192v-242l-829 -1124h-357l858 1124h-864z" />
<glyph unicode="8" d="M92 360q0 201 205 322q-115 70 -160 143.5t-45 190.5q0 250 232 327q92 31 381 31q238 0 325.5 -7t147.5 -34q94 -41 149 -132t55 -206q0 -221 -208 -313q203 -113 202 -315q0 -133 -79.5 -230.5t-213.5 -124.5q-100 -20 -313 -20q-119 0 -268 6q-199 8 -299 108 q-111 111 -111 254zM412 973q0 -137 106 -162q35 -8 125 -8h31l33 -2h61q170 0 215 20q80 37 80 152q0 129 -121 160q-35 8 -117 10l-88 2q-10 0 -86 -2q-139 -4 -189 -40t-50 -130zM414 399q0 -141 106 -168q33 -8 121 -8h31q35 0 63 -2l64 2q121 4 149.5 8.5t55.5 26.5 q53 43 53 141q0 135 -117 164q-41 10 -119 10h-28l-29 2h-29q-29 0 -86 -2q-137 -4 -186 -41t-49 -133z" />
<glyph unicode="9" d="M100 938q0 246 213 367q123 70 375 69q340 0 492 -141q92 -86 144 -233.5t52 -317.5q0 -182 -60.5 -340t-162.5 -236q-80 -59 -183.5 -82.5t-291.5 -23.5h-504v242h416q109 0 162 4q190 14 247 106q49 78 52 209h-461q-137 0 -191 8q-111 16 -174 72q-125 111 -125 297z M420 973q0 -170 221 -170h410q-2 193 -82 267.5t-283 74.5q-147 0 -201 -37q-65 -45 -65 -135z" />
<glyph unicode=":" horiz-adv-x="458" d="M104 0v266h248v-266h-248zM104 479v266h248v-266h-248z" />
<glyph unicode=";" horiz-adv-x="479" d="M90 -281l125 281h-90v266h248v-237l-158 -310h-125zM125 479v266h248v-266h-248z" />
<glyph unicode="&#x3c;" horiz-adv-x="1024" d="M68 559v264l886 469v-315l-553 -287l553 -289v-311z" />
<glyph unicode="=" d="M240 410v223h995v-223h-995zM240 762v223h995v-223h-995z" />
<glyph unicode="&#x3e;" horiz-adv-x="1024" d="M68 90v313l550 289l-550 287v313l886 -469v-266z" />
<glyph unicode="?" horiz-adv-x="1394" d="M121 1124v242h715q133 0 180 -6q98 -14 168 -66q143 -104 143 -333t-149 -332q-94 -63 -299 -64h-181q-145 0 -195 -33.5t-50 -128.5v-69h-291v98q0 209 110 299q92 76 338 76h166q133 0 182.5 35t49.5 129q0 154 -189 153h-698zM162 0v231h291v-231h-291z" />
<glyph unicode="@" horiz-adv-x="1501" d="M68 672q0 293 207.5 497.5t504.5 204.5q285 0 469.5 -166t184.5 -422q0 -186 -101.5 -328.5t-234.5 -142.5q-59 0 -103.5 31t-56.5 82q-90 -129 -254 -129q-123 0 -206 92t-83 230q0 164 106.5 286.5t250.5 122.5q139 0 202 -102l17 80h176l-78 -392q-12 -63 -12 -88 q0 -70 49 -69q63 0 117.5 103.5t54.5 223.5q0 193 -134 316t-347 123q-236 0 -396.5 -160t-160.5 -395q0 -229 147.5 -379t374.5 -150q176 0 321 101l95 -131q-170 -119 -416 -119q-295 0 -494.5 195.5t-199.5 484.5zM596 625q0 -66 38 -107t97 -41q72 0 125 65.5t53 153.5 q0 66 -36.5 108t-94.5 42q-74 0 -128 -65.5t-54 -155.5z" />
<glyph unicode="A" horiz-adv-x="1480" d="M8 0l565 1366h334l566 -1366h-340l-132 317h-520l-131 -317h-342zM547 561h389l-195 477z" />
<glyph unicode="B" horiz-adv-x="1431" d="M139 0v1366h772q190 0 275 -47q78 -43 124 -128t46 -185q0 -104 -56.5 -195.5t-142.5 -128.5q199 -92 199 -326q0 -248 -201 -325q-80 -31 -260 -31h-756zM430 244h395q104 0 148 32q63 49 63 136q0 150 -205 149h-401v-317zM430 805h395q102 0 146 33q63 49 63 135 q0 150 -203 149h-401v-317z" />
<glyph unicode="C" horiz-adv-x="1243" d="M66 682q0 229 78.5 392t222.5 231q131 61 346 61h463v-244h-428q-195 0 -278 -96t-83 -326q0 -250 84 -353t287 -103h418v-244h-476q-176 0 -275 29.5t-179 105.5q-180 172 -180 547z" />
<glyph unicode="D" horiz-adv-x="1468" d="M139 0v1366h580q211 0 339 -44t210 -144q59 -74 97 -210.5t38 -283.5q0 -422 -201 -580q-92 -72 -231 -92q-76 -12 -252 -12h-580zM430 244h289q197 0 270 90q94 117 94 354q0 266 -125 371q-76 63 -239 63h-289v-878z" />
<glyph unicode="E" horiz-adv-x="1253" d="M66 682q0 377 231 573q74 61 156 86t219 25h491v-244h-379q-147 0 -215.5 -20.5t-113.5 -79.5q-31 -41 -41.5 -80t-18.5 -141h768v-244h-768q14 -174 103.5 -243.5t298.5 -69.5h366v-244h-379q-219 0 -337.5 34t-200.5 120q-180 188 -180 528z" />
<glyph unicode="F" horiz-adv-x="1302" d="M125 0v713q0 238 41 354q61 174 235 250q115 49 357 49h471v-244h-434q-213 0 -296 -52t-83 -189v-74h813v-244h-813v-563h-291z" />
<glyph unicode="G" horiz-adv-x="1417" d="M66 682q0 399 213 567q147 117 434 117h598v-244h-563q-195 0 -279 -97t-84 -325q0 -270 98 -374q78 -82 275 -82h262v323h-381v244h672v-811h-611q-283 0 -419 106q-215 168 -215 576z" />
<glyph unicode="H" horiz-adv-x="1386" d="M139 0v1366h291v-559h526v559h291v-1366h-291v563h-526v-563h-291z" />
<glyph unicode="I" horiz-adv-x="569" d="M139 0v1366h291v-1366h-291z" />
<glyph unicode="J" horiz-adv-x="1091" d="M31 0v244h278q246 0 306.5 58t60.5 298v766h291v-797q0 -203 -44 -313.5t-149 -177.5q-90 -57 -223 -72q-59 -6 -145 -6h-375z" />
<glyph unicode="K" horiz-adv-x="1349" d="M139 0v1366h291v-1366h-291zM440 692l523 674h380l-569 -674l543 -692h-383z" />
<glyph unicode="L" horiz-adv-x="1091" d="M125 600v766h291v-766q0 -115 12 -194q20 -127 164 -152q59 -10 190 -10h279v-244h-309q-115 0 -156 2q-297 14 -410 217q-61 109 -61 381z" />
<glyph unicode="M" horiz-adv-x="1822" d="M135 0v1366h426l340 -1067l359 1067h423v-1366h-276v1026l-358 -1026h-299l-338 1026v-1026h-277z" />
<glyph unicode="N" horiz-adv-x="1470" d="M139 0v1366h371l545 -1018v1018h276v-1366h-356l-559 1001v-1001h-277z" />
<glyph unicode="O" horiz-adv-x="1480" d="M66 676q0 700 673 700q346 0 510 -176t164 -547q0 -324 -168 -492.5t-489 -168.5q-340 0 -515 174t-175 510zM385 686q0 -242 87 -353.5t273 -111.5q348 0 349 463q0 461 -349 461q-190 0 -275 -108.5t-85 -350.5z" />
<glyph unicode="P" horiz-adv-x="1404" d="M139 0v1366h682q180 0 263 -24.5t151 -100.5q123 -135 123 -319q0 -254 -184 -383q-92 -61 -277 -62h-467v-477h-291zM430 721h395q115 0 164 48t49 161q0 102 -48 147t-159 45h-401v-401z" />
<glyph unicode="Q" horiz-adv-x="1550" d="M66 678q0 698 671 698q383 0 545 -211q57 -76 95 -208t38 -263q0 -264 -153 -450h233v-244h-700q-217 0 -347.5 40t-218.5 136q-163 176 -163 502zM387 705q0 -250 86 -363t275 -113q346 0 346 459t-346 459q-361 0 -361 -442z" />
<glyph unicode="R" horiz-adv-x="1464" d="M139 0v1366h668q293 0 410 -80q152 -104 151 -301q0 -309 -260 -399q129 -43 182 -125t66 -254q10 -137 33 -207h-326q-6 18 -29 195q-18 186 -97 254.5t-273 68.5h-234v-518h-291zM430 762h408q209 0 209 186q0 94 -48.5 134t-160.5 40h-408v-360z" />
<glyph unicode="S" horiz-adv-x="1423" d="M70 967q0 129 71.5 237.5t192.5 141.5q74 20 266 20h676v-244h-610q-131 0 -183 -12q-92 -23 -92 -137q0 -88 55.5 -123t194.5 -35h219q281 0 389 -113q102 -104 103 -303q0 -115 -56 -217q-61 -109 -161 -149q-84 -33 -314 -33h-686v244h623q147 0 208.5 35.5 t61.5 123.5q0 168 -235 168h-252q-238 0 -342 91q-129 112 -129 305z" />
<glyph unicode="T" horiz-adv-x="1198" d="M10 1122v244h1178v-244h-451v-1122h-291v1122h-436z" />
<glyph unicode="U" horiz-adv-x="1439" d="M125 541v825h291v-817q0 -182 76 -252q86 -78 231 -78q221 0 278 131q25 55 25 199v817h291v-805q0 -315 -148 -438q-160 -133 -448 -133q-324 0 -471 149q-70 72 -97.5 159t-27.5 243z" />
<glyph unicode="V" horiz-adv-x="1472" d="M4 1366h328l401 -1028l408 1028h327l-598 -1366h-290z" />
<glyph unicode="W" horiz-adv-x="2166" d="M27 1366h301l307 -1028l285 1028h325l287 -1028l307 1028h299l-442 -1366h-330l-283 987l-284 -987h-330z" />
<glyph unicode="X" horiz-adv-x="1304" d="M10 0l465 690l-448 676h356l268 -448l291 448h352l-463 -676l463 -690h-342l-301 469l-295 -469h-346z" />
<glyph unicode="Y" horiz-adv-x="1339" d="M6 1366h342l314 -532l329 532h344l-532 -778v-588h-291v598z" />
<glyph unicode="Z" horiz-adv-x="1339" d="M76 0v238l862 884h-862v244h1188v-252l-832 -870h832v-244h-1188z" />
<glyph unicode="[" horiz-adv-x="688" d="M90 -74v1141q0 176 74 237.5t264 61.5h190v-219h-69q-117 0 -145.5 -25.5t-28.5 -132.5v-987q0 -106 28.5 -132t145.5 -26h69v-219h-190q-102 0 -145 8q-80 14 -131 64q-62 61 -62 229z" />
<glyph unicode="\" horiz-adv-x="1091" d="M25 1366h256l788 -1366h-256z" />
<glyph unicode="]" horiz-adv-x="688" d="M70 -156h69q117 0 145.5 26t28.5 132v987q0 106 -28.5 132t-145.5 26h-69v219h190q102 0 146 -8q80 -14 131 -64q61 -61 61 -227v-1141q0 -178 -73.5 -239.5t-264.5 -61.5h-190v219z" />
<glyph unicode="^" horiz-adv-x="1024" d="M29 715l307 659h352l307 -659h-280l-203 446l-203 -446h-280z" />
<glyph unicode="_" horiz-adv-x="1024" d="M0 -113h1024v-188h-1024v188z" />
<glyph unicode="`" horiz-adv-x="1024" d="M197 1366h254l182 -258h-164z" />
<glyph unicode="a" horiz-adv-x="1218" d="M80 297q0 102 50 181t132 106q70 23 225 22h336v17q0 92 -45 126.5t-164 34.5h-462v213h462q160 0 213 -10q111 -20 181 -100q90 -104 90 -326v-561h-578q-137 0 -170 2q-100 10 -155 51q-115 84 -115 244zM358 301q0 -88 148 -88h317v180h-362q-103 0 -103 -92z" />
<glyph unicode="b" horiz-adv-x="1222" d="M135 0v1366h275v-369h243q238 0 369 -126t131 -353q0 -350 -274 -475q-96 -43 -297 -43h-447zM410 213h202q119 0 189.5 77t70.5 208q0 287 -260 286h-202v-571z" />
<glyph unicode="c" horiz-adv-x="1044" d="M68 508q0 260 153 391q115 98 371 98h375v-213h-328q-154 0 -222.5 -66.5t-68.5 -215.5q0 -152 76 -220.5t246 -68.5h297v-213h-375q-150 0 -239 30.5t-156 106.5q-129 144 -129 371z" />
<glyph unicode="d" horiz-adv-x="1212" d="M68 510q0 225 128 356t347 131h258v369h274v-1366h-473q-147 0 -233 27.5t-160 99.5q-141 139 -141 383zM346 504q0 -135 68.5 -213t187.5 -78h199v571h-199q-121 0 -188.5 -74.5t-67.5 -205.5z" />
<glyph unicode="e" horiz-adv-x="1040" d="M68 508q0 133 52 245.5t142 172.5q109 72 301 71h385v-213h-364q-113 0 -159 -37.5t-54 -140.5h577v-213h-577q8 -100 61 -140t180 -40h336v-213h-364q-213 0 -336 94q-180 138 -180 414z" />
<glyph unicode="f" horiz-adv-x="778" d="M37 784v213h180v60q0 162 68.5 235.5t220.5 73.5h242v-213h-140q-117 0 -116 -111v-45h256v-213h-256v-784h-275v784h-180z" />
<glyph unicode="g" horiz-adv-x="1226" d="M74 502q0 242 130 368.5t376 126.5h512v-989q0 -170 -76 -262q-82 -100 -307 -100h-547v213h510q86 0 115.5 25.5t29.5 97.5v18h-252q-223 0 -342 111q-149 139 -149 391zM354 498q0 -285 250 -285h213v571h-227q-236 1 -236 -286z" />
<glyph unicode="h" horiz-adv-x="1222" d="M135 0v1366h275v-369h280q221 0 315.5 -86t94.5 -288v-623h-275v567q0 133 -37.5 175t-156.5 42h-221v-784h-275z" />
<glyph unicode="i" horiz-adv-x="544" d="M135 0v997h275v-997h-275zM135 1100v266h275v-266h-275z" />
<glyph unicode="j" horiz-adv-x="610" d="M-49 -145h69q113 0 147 37.5t34 166.5v938h274v-917q0 -268 -125 -361q-100 -74 -278 -73h-121v209zM201 1108v258h274v-258h-274z" />
<glyph unicode="k" horiz-adv-x="1114" d="M135 0v1366h275v-764l366 395h307l-389 -395h76q139 0 195.5 -85t56.5 -296v-221h-274v233q0 92 -32 125t-120 33h-186v-391h-275z" />
<glyph unicode="l" horiz-adv-x="544" d="M135 0v1366h275v-1366h-275z" />
<glyph unicode="m" horiz-adv-x="1683" d="M135 0v997h1008q246 0 330 -92q90 -98 90 -270v-635h-275v592q0 113 -33.5 152.5t-130.5 39.5h-145v-784h-274v784h-295v-784h-275z" />
<glyph unicode="n" horiz-adv-x="1183" d="M135 0v997h529q215 0 307 -88t92 -295v-614h-275v645q0 139 -141 139h-237v-784h-275z" />
<glyph unicode="o" horiz-adv-x="1191" d="M68 500q0 236 142 374t384 138q250 0 389 -138.5t139 -386.5q0 -233 -143 -367t-393 -134q-242 0 -380 137t-138 377zM348 498q0 -301 250 -301q244 0 244 301q0 303 -252 303q-242 0 -242 -303z" />
<glyph unicode="p" horiz-adv-x="1208" d="M135 -375v1372h479q123 0 185 -12q92 -18 164 -74q178 -139 178 -428q0 -219 -129 -351t-361 -132h-241v-375h-275zM410 213h168q283 0 282 287q0 285 -262 284h-188v-571z" />
<glyph unicode="q" horiz-adv-x="1220" d="M68 485q0 156 61 281q70 141 201 197q82 35 264 34h491v-1372h-274v375h-264q-219 0 -349 131t-130 354zM348 500q0 -287 273 -287h190v571h-201q-262 1 -262 -284z" />
<glyph unicode="r" horiz-adv-x="958" d="M135 0v997h406q229 0 309 -72.5t80 -279.5v-98h-264v53q0 106 -38 145t-139 39h-79v-784h-275z" />
<glyph unicode="s" horiz-adv-x="1124" d="M80 707q0 158 115 243q61 47 221 47h585v-213h-487q-80 0 -104 -8q-47 -18 -48 -80q0 -70 58 -88q31 -10 121 -10h161q164 0 254.5 -73.5t90.5 -211.5q0 -92 -46.5 -174t-115.5 -112q-59 -27 -223 -27h-568v213h488q96 0 129 4q68 8 67 82q0 66 -53 86q-29 10 -113 10 h-168q-172 0 -251 62q-113 88 -113 250z" />
<glyph unicode="t" horiz-adv-x="788" d="M33 784v213h174v369h274v-369h254v-213h-254v-362q0 -129 28 -169t118 -40h108v-213h-198q-180 0 -255 84t-75 291v409h-174z" />
<glyph unicode="u" horiz-adv-x="1196" d="M121 383v614h274v-641q0 -143 131 -143h258v784h275v-997h-539q-215 0 -307 88t-92 295z" />
<glyph unicode="v" horiz-adv-x="1148" d="M14 997h299l254 -686l279 686h291l-430 -997h-295z" />
<glyph unicode="w" horiz-adv-x="1683" d="M121 362v635h274v-591q0 -113 34 -153t130 -40h146v784h274v-784h295v784h274v-997h-1007q-246 0 -330 92q-90 98 -90 270z" />
<glyph unicode="x" horiz-adv-x="1075" d="M8 0l375 494l-358 503h305l211 -295l204 295h322l-373 -503l373 -494h-322l-204 285l-211 -285h-322z" />
<glyph unicode="y" horiz-adv-x="1175" d="M121 -141h489q84 0 116 21.5t36 82.5q0 10 2 37h-244q-213 0 -309 102q-61 66 -80 158q-10 53 -10 180v557h274v-530q0 -156 28 -205t116 -49h225v784h274v-977q0 -197 -101 -285.5t-327 -88.5h-489v213z" />
<glyph unicode="z" horiz-adv-x="1079" d="M63 0v207l576 577h-576v213h941v-206l-576 -578h576v-213h-941z" />
<glyph unicode="{" horiz-adv-x="706" d="M82 401v197q57 14 77.5 53t20.5 131v299q0 160 77 226.5t261 66.5q18 0 117 -4v-221h-31q-129 0 -151.5 -24.5t-22.5 -163.5v-203q0 -104 -24.5 -155.5t-98.5 -102.5q70 -45 96.5 -100.5t26.5 -157.5v-201q0 -137 23.5 -164t150.5 -27h31v-221q-72 -4 -117 -4 q-182 0 -260 67.5t-78 227.5v297q0 90 -21.5 130t-76.5 54z" />
<glyph unicode="|" horiz-adv-x="1024" d="M352 -342v1708h318v-1708h-318z" />
<glyph unicode="}" horiz-adv-x="706" d="M72 -150h30q125 0 148.5 27t23.5 164v201q0 102 27 157.5t96 100.5q-74 51 -98.5 102t-24.5 156v203q0 139 -22.5 163.5t-149.5 24.5h-30v221q98 4 114 4q184 0 261 -66.5t77 -226.5v-299q0 -92 21.5 -131t79.5 -53v-197q-57 -14 -79 -54t-22 -130v-297 q0 -160 -76.5 -227.5t-259.5 -67.5q-45 0 -116 4v221z" />
<glyph unicode="~" horiz-adv-x="1366" d="M190 1255q113 283 312 283q68 0 225 -68q119 -51 156 -51q78 0 145 123l154 -127q-63 -152 -136 -215t-186 -63q-66 0 -227 69q-104 45 -148 45q-74 0 -141 -125z" />
<glyph unicode="&#xa1;" horiz-adv-x="561" d="M135 -375v1030h291v-1030h-291zM135 758v231h291v-231h-291z" />
<glyph unicode="&#xa2;" d="M256 645q0 152 59.5 268.5t165.5 169.5q98 49 301 50v200h156v-200h217v-213h-217v-570h217v-213h-217v-200h-156v200q-254 0 -370 109q-156 145 -156 399zM537 639q0 -264 245 -287v566q-131 -10 -188 -76t-57 -203z" />
<glyph unicode="&#xa3;" d="M162 0v242h110v348h-110v170h110v26q0 197 27 296.5t96 164.5q96 90 248 111q63 8 197 8h385v-242h-385q-172 0 -224.5 -49t-52.5 -207v-108h451v-170h-451v-348h750v-242h-1151z" />
<glyph unicode="&#xa4;" horiz-adv-x="1536" d="M66 303v1081h147zM414 -2l65 547l170 -547h-235zM604 1384h352l-186 -577zM889 -2l176 545l57 -545h-233zM1346 1384h124v-1034z" />
<glyph unicode="&#xa5;" d="M100 1366h340l287 -535l301 535h346l-459 -704h234v-164h-281v-109h281v-164h-281v-225h-290v225h-281v164h281v109h-281v164h242z" />
<glyph unicode="&#xa6;" horiz-adv-x="1024" d="M352 313h318v-655h-318v655zM352 643v723h318v-723h-318z" />
<glyph unicode="&#xa7;" d="M174 522q0 133 98 244q-98 92 -98 246q0 113 59.5 206t151.5 125q66 23 254 23h594v-213h-537q-113 0 -159 -12q-82 -20 -82 -127q0 -78 47 -109t168 -31h223q158 0 240 -32q168 -68 167 -318q0 -150 -92 -239q92 -92 92 -258q0 -115 -55 -201q-59 -94 -164 -125 q-66 -18 -247 -18h-603v213h547q129 0 183.5 31.5t54.5 107.5q0 139 -207 139h-223q-207 0 -299 82q-113 100 -113 266zM457 526q0 -76 48 -107.5t167 -31.5h108q133 0 185.5 28.5t52.5 100.5q0 145 -207 146h-139q-127 0 -171 -28t-44 -108z" />
<glyph unicode="&#xa8;" horiz-adv-x="1024" d="M213 1108v217h211v-217h-211zM600 1108v217h211v-217h-211z" />
<glyph unicode="&#xa9;" horiz-adv-x="1574" d="M80 684q0 295 208 503t505 208q291 0 497.5 -209t206.5 -502q0 -295 -207 -504t-497 -209q-297 0 -505 208t-208 505zM225 684q0 -240 166 -409t402 -169q231 0 395 170t164 408t-165 407t-394 169q-236 0 -402 -168t-166 -408zM403 686q0 182 109 298t283 116 q145 0 244.5 -83t107.5 -210h-143q-33 131 -205 131q-96 0 -151.5 -67.5t-55.5 -184.5q0 -113 55 -180.5t146 -67.5q193 0 219 168h143q-10 -152 -108.5 -241t-253.5 -89q-174 0 -282 114t-108 296z" />
<glyph unicode="&#xaa;" horiz-adv-x="823" d="M68 547v112h686v-112h-686zM84 946q0 141 121 178q41 12 141 13h205q0 57 -33 75q-25 14 -92 15h-297v139h297q100 0 135 -6q72 -12 117 -62q59 -63 59 -194v-340h-370q-158 0 -205 31q-78 49 -78 151zM272 950q0 -47 86 -47h193v94h-193q-53 0 -69.5 -9t-16.5 -38z" />
<glyph unicode="&#xab;" horiz-adv-x="821" d="M86 367v247l272 222v-244l-143 -100l143 -97v-243zM446 367v247l273 222v-244l-144 -100l144 -97v-243z" />
<glyph unicode="&#xac;" horiz-adv-x="1024" d="M68 319v277h886v-596h-309v319h-577z" />
<glyph unicode="&#xad;" d="M240 586v223h995v-223h-995z" />
<glyph unicode="&#x2212;" d="M240 586v223h995v-223h-995z" />
<glyph unicode="&#xae;" horiz-adv-x="1574" d="M80 684q0 295 208 503t505 208q291 0 497.5 -209t206.5 -502q0 -295 -207 -504t-497 -209q-297 0 -505 208t-208 505zM225 684q0 -240 166 -409t402 -169q231 0 395 170t164 408t-165 407t-394 169q-236 0 -402 -168t-166 -408zM489 295v788h334q289 0 289 -215 q0 -139 -131 -196q57 -23 86 -70q23 -39 33 -186q6 -82 20 -121h-178q-14 31 -18 100q-10 137 -39 179t-119 42h-90v-321h-187zM676 725h106q145 0 146 129q0 115 -135 115h-117v-244z" />
<glyph unicode="&#xaf;" horiz-adv-x="1024" d="M166 1180v120h694v-120h-694z" />
<glyph unicode="&#x2c9;" horiz-adv-x="1024" d="M166 1180v120h694v-120h-694z" />
<glyph unicode="&#xb0;" horiz-adv-x="788" d="M80 1044q0 125 92 215.5t221 90.5t221.5 -90.5t92.5 -215.5q0 -129 -91.5 -220t-222.5 -91t-222 91t-91 220zM240 1044q0 -63 44 -107t107 -44q61 0 106.5 45t45.5 106q0 63 -44 107.5t-108 44.5q-61 0 -106 -45.5t-45 -106.5z" />
<glyph unicode="&#xb1;" d="M252 70v223h969v-223h-969zM252 733v223h369v365h231v-365h369v-223h-369v-364h-231v364h-369z" />
<glyph unicode="&#xb2;" horiz-adv-x="970" d="M104 547v221q0 137 76 209q59 55 209 55h139q141 0 142 84q0 94 -142 94h-409v156h448q166 0 242 -58.5t76 -187.5q0 -127 -73 -185t-232 -58h-121q-86 0 -113 -15q-45 -20 -45 -94v-66h561v-155h-758z" />
<glyph unicode="&#xb3;" horiz-adv-x="970" d="M125 547v155h377q129 0 129 89q0 51 -29 70.5t-100 19.5h-295v157h295q68 0 92 13q37 16 37 73q0 86 -129 86h-377v156h407q141 0 195 -27q119 -57 119 -194q0 -125 -109 -184q109 -72 109 -195q0 -119 -96 -176q-72 -43 -240 -43h-385z" />
<glyph unicode="&#xb4;" horiz-adv-x="1024" d="M397 1108l176 258h252l-268 -258h-160z" />
<glyph unicode="&#xb5;" horiz-adv-x="1024" d="M61 -348v1331h269v-512q0 -129 37 -184q55 -84 147 -84q84 0 132 72.5t48 203.5v504h269v-983h-269v135q-57 -156 -186 -155q-111 0 -178 122v-450h-269z" />
<glyph unicode="&#x3bc;" horiz-adv-x="1024" d="M61 -348v1331h269v-512q0 -129 37 -184q55 -84 147 -84q84 0 132 72.5t48 203.5v504h269v-983h-269v135q-57 -156 -186 -155q-111 0 -178 122v-450h-269z" />
<glyph unicode="&#xb6;" d="M127 922q0 121 56.5 227t149.5 161.5t304 55.5h739v-240h-123v-1314h-241v1314h-338q-106 0 -146 -20q-84 -45 -84 -178q0 -207 215 -207h166v-909h-241v667q-170 2 -252 43q-92 45 -148.5 156t-56.5 244z" />
<glyph unicode="&#xb7;" horiz-adv-x="458" d="M104 549v266h248v-266h-248z" />
<glyph unicode="&#x2219;" horiz-adv-x="458" d="M104 549v266h248v-266h-248z" />
<glyph unicode="&#xb8;" horiz-adv-x="1024" d="M365 -287h141q61 0 61 58q0 55 -69 55h-86v205h104v-123h21q182 0 182 -150q0 -78 -45 -111.5t-152 -33.5h-157v100z" />
<glyph unicode="&#xb9;" horiz-adv-x="970" d="M387 547v819h197v-819h-197z" />
<glyph unicode="&#xba;" horiz-adv-x="823" d="M68 547v112h686v-112h-686zM72 1065q0 141 91 225t247 84q158 0 249 -83t91 -226q0 -145 -91.5 -227t-255.5 -82q-154 0 -242.5 83t-88.5 226zM262 1065q0 -172 146 -172q152 0 151 172q0 172 -151 172q-146 0 -146 -172z" />
<glyph unicode="&#xbb;" horiz-adv-x="821" d="M102 152v243l144 97l-144 100v244l273 -222v-247zM463 152v243l143 97l-143 100v244l272 -222v-247z" />
<glyph unicode="&#xbc;" horiz-adv-x="2267" d="M469 547v819h197v-819h-197zM645 -8l766 1382h197l-766 -1382h-197zM1276 139v180l489 500h252v-524h113v-156h-113v-139h-196v139h-545zM1505 295h316v321z" />
<glyph unicode="&#xbd;" horiz-adv-x="2267" d="M469 547v819h197v-819h-197zM645 -8l766 1382h197l-766 -1382h-197zM1427 0v221q0 137 76 209q59 55 209 55h139q141 0 142 84q0 94 -142 95h-409v155h448q166 0 242 -58.5t76 -187.5q0 -127 -73 -185t-232 -58h-121q-86 0 -113 -15q-45 -20 -45 -94v-65h561v-156h-758z " />
<glyph unicode="&#xbe;" horiz-adv-x="2267" d="M125 547v155h377q129 0 129 89q0 51 -29 70.5t-100 19.5h-295v157h295q68 0 92 13q37 16 37 73q0 86 -129 86h-377v156h407q141 0 195 -27q119 -57 119 -194q0 -125 -109 -184q109 -72 109 -195q0 -119 -96 -176q-72 -43 -240 -43h-385zM645 -8l766 1382h197l-766 -1382 h-197zM1264 139v180l489 500h250v-524h113v-156h-113v-139h-197v139h-542zM1491 295h315v321z" />
<glyph unicode="&#xbf;" horiz-adv-x="1394" d="M68 29q0 229 149 331q94 63 299 64h180q143 0 194.5 34t51.5 130v69h291v-98q0 -207 -100.5 -292t-348.5 -85h-166q-133 0 -182 -34.5t-49 -129.5q0 -152 188 -151h699v-242h-715q-133 0 -180 6q-98 14 -168 66q-143 105 -143 332zM942 758v231h291v-231h-291z" />
<glyph unicode="&#xc0;" horiz-adv-x="1480" d="M8 0l565 1366h334l566 -1366h-340l-132 317h-520l-131 -317h-342zM424 1710h262l174 -242h-174zM547 561h389l-195 477z" />
<glyph unicode="&#xc1;" horiz-adv-x="1480" d="M8 0l565 1366h334l566 -1366h-340l-132 317h-520l-131 -317h-342zM547 561h389l-195 477zM621 1468l172 242h264l-264 -242h-172z" />
<glyph unicode="&#xc2;" horiz-adv-x="1480" d="M8 0l565 1366h334l566 -1366h-340l-132 317h-520l-131 -317h-342zM418 1468l215 244h217l215 -244h-205l-121 140l-125 -140h-196zM547 561h389l-195 477z" />
<glyph unicode="&#xc3;" horiz-adv-x="1480" d="M8 0l565 1366h334l566 -1366h-340l-132 317h-520l-131 -317h-342zM408 1479q33 233 194 233q59 0 211 -67q33 -14 59 -15q59 0 74 84h127q-37 -229 -186 -229q-51 0 -185 53q-66 27 -96 27q-57 0 -74 -86h-124zM547 561h389l-195 477z" />
<glyph unicode="&#xc4;" horiz-adv-x="1480" d="M8 0l565 1366h334l566 -1366h-340l-132 317h-520l-131 -317h-342zM430 1468v215h219v-215h-219zM547 561h389l-195 477zM834 1468v215h217v-215h-217z" />
<glyph unicode="&#xc5;" horiz-adv-x="1480" d="M8 0l565 1366h334l566 -1366h-340l-132 317h-520l-131 -317h-342zM530 1679q0 86 61.5 147.5t149.5 61.5q86 0 147.5 -61.5t61.5 -147.5q0 -88 -61.5 -149.5t-147.5 -61.5q-88 0 -149.5 61.5t-61.5 149.5zM547 561h389l-195 477zM647 1679q0 -39 27.5 -66.5t66.5 -27.5 t66 27.5t27 66.5t-27 66t-66 27t-66.5 -27t-27.5 -66z" />
<glyph unicode="&#xc6;" horiz-adv-x="2111" d="M8 0l565 1366h334l117 -281q70 152 185.5 216.5t320.5 64.5h491v-244h-379q-147 0 -215.5 -20.5t-113.5 -79.5q-31 -41 -41 -80t-19 -141h768v-244h-768q14 -174 103.5 -243.5t298.5 -69.5h366v-244h-888l-134 317h-518l-131 -317h-342zM547 561h389l-195 477z" />
<glyph unicode="&#xc7;" horiz-adv-x="1243" d="M66 682q0 229 78.5 392t222.5 231q129 61 348 61h461v-244h-428q-195 0 -278 -96t-83 -326q0 -250 84 -353t287 -103h418v-244h-367v-84h22q199 0 199 -164q0 -88 -49 -125t-164 -37h-174v111h154q76 0 75 61q0 63 -81 64h-97v174q-47 0 -59 2q-135 0 -221 30.5 t-168 106.5q-180 168 -180 543z" />
<glyph unicode="&#xc8;" horiz-adv-x="1253" d="M66 682q0 377 231 573q74 61 156 86t219 25h491v-244h-379q-147 0 -215.5 -20.5t-113.5 -79.5q-31 -41 -41.5 -80t-18.5 -141h768v-244h-768q14 -174 103.5 -243.5t298.5 -69.5h366v-244h-379q-219 0 -337.5 34t-200.5 120q-180 188 -180 528zM391 1710h262l174 -242 h-174z" />
<glyph unicode="&#xc9;" horiz-adv-x="1253" d="M66 682q0 377 231 573q74 61 156 86t219 25h491v-244h-379q-147 0 -215.5 -20.5t-113.5 -79.5q-31 -41 -41.5 -80t-18.5 -141h768v-244h-768q14 -174 103.5 -243.5t298.5 -69.5h366v-244h-379q-219 0 -337.5 34t-200.5 120q-180 188 -180 528zM588 1468l172 242h264 l-264 -242h-172z" />
<glyph unicode="&#xca;" horiz-adv-x="1253" d="M66 682q0 377 231 573q74 61 156 86t219 25h491v-244h-379q-147 0 -215.5 -20.5t-113.5 -79.5q-31 -41 -41.5 -80t-18.5 -141h768v-244h-768q14 -174 103.5 -243.5t298.5 -69.5h366v-244h-379q-219 0 -337.5 34t-200.5 120q-180 188 -180 528zM385 1468l215 244h217 l215 -244h-205l-120 140l-125 -140h-197z" />
<glyph unicode="&#xcb;" horiz-adv-x="1253" d="M66 682q0 377 231 573q74 61 156 86t219 25h491v-244h-379q-147 0 -215.5 -20.5t-113.5 -79.5q-31 -41 -41.5 -80t-18.5 -141h768v-244h-768q14 -174 103.5 -243.5t298.5 -69.5h366v-244h-379q-219 0 -337.5 34t-200.5 120q-180 188 -180 528zM426 1468v215h219v-215 h-219zM829 1468v215h218v-215h-218z" />
<glyph unicode="&#xcc;" horiz-adv-x="569" d="M-4 1710h262l174 -242h-174zM139 0v1366h291v-1366h-291z" />
<glyph unicode="&#xcd;" horiz-adv-x="569" d="M137 1468l172 242h264l-264 -242h-172zM139 0v1366h291v-1366h-291z" />
<glyph unicode="&#xce;" horiz-adv-x="569" d="M-39 1468l215 244h217l215 -244h-205l-120 140l-125 -140h-197zM139 0v1366h291v-1366h-291z" />
<glyph unicode="&#xcf;" horiz-adv-x="569" d="M25 1468v215h219v-215h-219zM139 0v1366h291v-1366h-291zM326 1468v215h217v-215h-217z" />
<glyph unicode="&#xd0;" horiz-adv-x="1468" d="M8 557v244h131v565h580q211 0 339 -44t210 -144q59 -74 97 -211.5t38 -284.5q0 -418 -201 -576q-80 -63 -178 -84.5t-305 -21.5h-580v557h-131zM430 244h289q197 0 270 90q94 117 94 354q0 266 -125 371q-76 63 -239 63h-289v-321h305v-244h-305v-313z" />
<glyph unicode="&#xd1;" horiz-adv-x="1470" d="M139 0v1366h371l545 -1018v1018h276v-1366h-356l-559 1001v-1001h-277zM401 1479q33 233 195 233q59 0 211 -67q33 -14 59 -15q59 0 74 84h127q-37 -229 -186 -229q-51 0 -185 53q-66 27 -96 27q-57 0 -74 -86h-125z" />
<glyph unicode="&#xd2;" horiz-adv-x="1480" d="M66 676q0 358 165.5 528t513.5 170q342 0 505 -176t163 -545q0 -324 -168 -492.5t-489 -168.5q-340 0 -515 174t-175 510zM385 686q0 -242 87 -353.5t273 -111.5q348 0 349 463q0 461 -349 461q-190 0 -275 -108.5t-85 -350.5zM424 1710h262l174 -242h-174z" />
<glyph unicode="&#xd3;" horiz-adv-x="1480" d="M66 676q0 700 673 700q346 0 510 -176t164 -547q0 -324 -168 -492.5t-489 -168.5q-340 0 -515 174t-175 510zM385 686q0 -242 87 -353.5t273 -111.5q348 0 349 463q0 461 -349 461q-190 0 -275 -108.5t-85 -350.5zM618 1468l173 242h264l-264 -242h-173z" />
<glyph unicode="&#xd4;" horiz-adv-x="1480" d="M66 676q0 358 165.5 528t513.5 170q342 0 505 -176t163 -545q0 -324 -168 -492.5t-489 -168.5q-340 0 -515 174t-175 510zM385 686q0 -242 87 -353.5t273 -111.5q348 0 349 463q0 461 -349 461q-190 0 -275 -108.5t-85 -350.5zM416 1468l217 244h215l215 -244h-205 l-119 140l-127 -140h-196z" />
<glyph unicode="&#xd5;" horiz-adv-x="1480" d="M66 676q0 358 165.5 528t513.5 170q342 0 505 -176t163 -545q0 -324 -168 -492.5t-489 -168.5q-340 0 -515 174t-175 510zM385 686q0 -242 87 -353.5t273 -111.5q348 0 349 463q0 461 -349 461q-190 0 -275 -108.5t-85 -350.5zM408 1479q33 233 194 233q57 0 209 -67 q33 -14 59 -15q59 0 76 84h127q-37 -229 -188 -229q-51 0 -183 53q-66 27 -96 27q-59 0 -74 -86h-124z" />
<glyph unicode="&#xd6;" horiz-adv-x="1480" d="M66 676q0 700 673 700q346 0 510 -176t164 -547q0 -324 -168 -492.5t-489 -168.5q-340 0 -515 174t-175 510zM385 686q0 -242 87 -353.5t273 -111.5q348 0 349 463q0 461 -349 461q-190 0 -275 -108.5t-85 -350.5zM430 1468v215h219v-215h-219zM834 1468v215h217v-215 h-217z" />
<glyph unicode="&#xd7;" d="M268 385l312 311l-312 312l158 159l311 -313l312 313l159 -159l-311 -312l311 -311l-159 -158l-312 312l-311 -312z" />
<glyph unicode="&#xd8;" horiz-adv-x="1480" d="M66 674q0 702 673 702q197 0 357 -69l61 88h223l-133 -191q166 -176 166 -532q0 -680 -657 -680q-178 0 -348 63l-58 -84h-223l127 179q-188 182 -188 524zM385 686q0 -176 53 -297l496 711q-88 45 -197 45q-182 0 -267 -110.5t-85 -348.5zM567 256q76 -35 178 -35 q348 0 349 463q0 162 -41 268z" />
<glyph unicode="&#xd9;" horiz-adv-x="1439" d="M125 541v825h291v-817q0 -182 76 -252q86 -78 231 -78q221 0 278 131q25 55 25 199v817h291v-805q0 -315 -148 -438q-160 -133 -448 -133q-324 0 -471 149q-70 72 -97.5 159t-27.5 243zM406 1710h262l174 -242h-174z" />
<glyph unicode="&#xda;" horiz-adv-x="1439" d="M125 541v825h291v-817q0 -182 76 -252q86 -78 231 -78q221 0 278 131q25 55 25 199v817h291v-805q0 -315 -148 -438q-160 -133 -448 -133q-324 0 -471 149q-70 72 -97.5 159t-27.5 243zM600 1468l172 242h264l-264 -242h-172z" />
<glyph unicode="&#xdb;" horiz-adv-x="1439" d="M125 541v825h291v-817q0 -182 76 -252q86 -78 231 -78q221 0 278 131q25 55 25 199v817h291v-805q0 -315 -148 -438q-160 -133 -448 -133q-324 0 -471 149q-70 72 -97.5 159t-27.5 243zM397 1468l215 244h217l215 -244h-204l-121 140l-125 -140h-197z" />
<glyph unicode="&#xdc;" horiz-adv-x="1439" d="M125 541v825h291v-817q0 -182 76 -252q86 -78 231 -78q221 0 278 131q25 55 25 199v817h291v-805q0 -315 -148 -438q-160 -133 -448 -133q-324 0 -471 149q-70 72 -97.5 159t-27.5 243zM412 1468v215h219v-215h-219zM815 1468v215h217v-215h-217z" />
<glyph unicode="&#xdd;" horiz-adv-x="1339" d="M6 1366h342l314 -532l329 532h344l-532 -778v-588h-291v598zM551 1468l172 242h264l-264 -242h-172z" />
<glyph unicode="&#xde;" horiz-adv-x="1404" d="M139 0v1366h291v-219h399q176 0 259 -24.5t149 -98.5q121 -133 121 -322q0 -254 -184 -383q-92 -61 -277 -61h-467v-258h-291zM430 502h399q111 0 160 49t49 160q0 102 -48 147t-161 45h-399v-401z" />
<glyph unicode="&#xdf;" horiz-adv-x="1234" d="M135 0v967q0 408 451 407q174 0 286.5 -81t112.5 -208t-106 -213q131 -16 207.5 -122.5t76.5 -274.5q0 -266 -166 -387q-100 -72 -262 -86q-25 -2 -162 -2h-96v213h141q152 0 209.5 64.5t57.5 185.5q0 215 -158 252q-45 10 -149 10h-168v-725h-275zM410 938h206 q86 0 118 20.5t32 75.5q0 127 -152 127q-123 0 -163.5 -34.5t-40.5 -141.5v-47z" />
<glyph unicode="&#xe0;" horiz-adv-x="1218" d="M80 297q0 102 50 181t132 106q70 23 225 22h336v17q0 92 -45 126.5t-164 34.5h-462v213h462q160 0 213 -10q111 -20 181 -100q90 -104 90 -326v-561h-578q-137 0 -170 2q-100 10 -155 51q-115 84 -115 244zM254 1366h254l182 -258h-164zM358 301q0 -88 148 -88h317v180 h-362q-103 0 -103 -92z" />
<glyph unicode="&#xe1;" horiz-adv-x="1218" d="M80 297q0 102 50 181t132 106q70 23 225 22h336v17q0 92 -45 126.5t-164 34.5h-462v213h462q160 0 213 -10q111 -20 181 -100q90 -104 90 -326v-561h-578q-137 0 -170 2q-100 10 -155 51q-115 84 -115 244zM358 301q0 -88 148 -88h317v180h-362q-103 0 -103 -92z M455 1108l176 258h252l-269 -258h-159z" />
<glyph unicode="&#xe2;" horiz-adv-x="1218" d="M80 297q0 102 50 181t132 106q70 23 225 22h336v17q0 92 -45 126.5t-164 34.5h-462v213h462q160 0 213 -10q111 -20 181 -100q90 -104 90 -326v-561h-578q-137 0 -170 2q-100 10 -155 51q-115 84 -115 244zM258 1108l209 258h209l207 -258h-187l-125 164l-135 -164h-178z M358 301q0 -88 148 -88h317v180h-362q-103 0 -103 -92z" />
<glyph unicode="&#xe3;" horiz-adv-x="1218" d="M80 297q0 102 50 181t132 106q70 23 225 22h336v17q0 92 -45 126.5t-164 34.5h-462v213h462q160 0 213 -10q111 -20 181 -100q90 -104 90 -326v-561h-578q-137 0 -170 2q-100 10 -155 51q-115 84 -115 244zM246 1126q37 219 194 220q51 0 158 -48q78 -35 113 -34 q55 0 77 86h105q-37 -213 -184 -213q-49 0 -179 49q-70 27 -102 26q-55 0 -80 -86h-102zM358 301q0 -88 148 -88h317v180h-362q-103 0 -103 -92z" />
<glyph unicode="&#xe4;" horiz-adv-x="1218" d="M80 297q0 102 50 181t132 106q70 23 225 22h336v17q0 92 -45 126.5t-164 34.5h-462v213h462q160 0 213 -10q111 -20 181 -100q90 -104 90 -326v-561h-578q-137 0 -170 2q-100 10 -155 51q-115 84 -115 244zM270 1108v217h211v-217h-211zM358 301q0 -88 148 -88h317v180 h-362q-103 0 -103 -92zM657 1108v217h211v-217h-211z" />
<glyph unicode="&#xe5;" horiz-adv-x="1218" d="M80 297q0 102 50 181t132 106q70 23 225 22h336v17q0 92 -45 126.5t-164 34.5h-462v213h462q160 0 213 -10q111 -20 181 -100q90 -104 90 -326v-561h-578q-137 0 -170 2q-100 10 -155 51q-115 84 -115 244zM358 301q0 -88 148 -88h317v180h-362q-103 0 -103 -92z M362 1315q0 84 60.5 144.5t146.5 60.5q84 0 144.5 -60.5t60.5 -144.5q0 -86 -60.5 -146.5t-144.5 -60.5q-86 0 -146.5 60.5t-60.5 146.5zM471 1315q0 -41 28.5 -69.5t69.5 -28.5t69 28.5t28 69.5t-28 68.5t-69 27.5t-69.5 -27.5t-28.5 -68.5z" />
<glyph unicode="&#xe6;" horiz-adv-x="1767" d="M80 297q0 102 50 181t132 106q70 23 225 22h336v17q0 92 -45 126.5t-164 34.5h-462v213h491q133 0 178 -6q94 -16 158 -73q113 80 315 79h385v-213h-366q-113 0 -158 -37.5t-55 -140.5h579v-213h-579q10 -100 64.5 -140t178.5 -40h336v-213h-1159q-137 0 -170 2 q-100 10 -155 51q-115 84 -115 244zM358 301q0 -88 148 -88h317v180h-362q-103 0 -103 -92z" />
<glyph unicode="&#xe7;" horiz-adv-x="1044" d="M68 508q0 260 153 391q115 98 371 98h375v-213h-330q-152 0 -220.5 -66.5t-68.5 -215.5q0 -152 77 -220.5t245 -68.5h297v-213h-283v-92h21q182 0 182 -150q0 -78 -45 -111.5t-152 -33.5h-158v100h142q59 0 59 58q0 55 -67 55h-86v174q-123 2 -191 18q-94 25 -166 91 q-155 143 -155 399z" />
<glyph unicode="&#xe8;" horiz-adv-x="1040" d="M68 508q0 133 52 245.5t142 172.5q109 72 301 71h385v-213h-364q-113 0 -159 -37.5t-54 -140.5h577v-213h-577q8 -100 61 -140t180 -40h336v-213h-364q-213 0 -336 94q-180 138 -180 414zM258 1366h254l182 -258h-164z" />
<glyph unicode="&#xe9;" horiz-adv-x="1040" d="M68 508q0 133 52 245.5t142 172.5q109 72 301 71h385v-213h-364q-113 0 -159 -37.5t-54 -140.5h577v-213h-577q8 -100 61 -140t180 -40h336v-213h-364q-213 0 -336 94q-180 138 -180 414zM459 1108l176 258h252l-269 -258h-159z" />
<glyph unicode="&#xea;" horiz-adv-x="1040" d="M68 508q0 133 52 245.5t142 172.5q109 72 301 71h385v-213h-364q-113 0 -159 -37.5t-54 -140.5h577v-213h-577q8 -100 61 -140t180 -40h336v-213h-364q-213 0 -336 94q-180 138 -180 414zM262 1108l209 258h209l207 -258h-187l-125 164l-135 -164h-178z" />
<glyph unicode="&#xeb;" horiz-adv-x="1040" d="M68 508q0 133 52 245.5t142 172.5q109 72 301 71h385v-213h-364q-113 0 -159 -37.5t-54 -140.5h577v-213h-577q8 -100 61 -140t180 -40h336v-213h-364q-213 0 -336 94q-180 138 -180 414zM274 1108v217h211v-217h-211zM662 1108v217h210v-217h-210z" />
<glyph unicode="&#xec;" horiz-adv-x="544" d="M-16 1366h254l182 -258h-164zM135 0v997h275v-997h-275z" />
<glyph unicode="&#xed;" horiz-adv-x="544" d="M131 1108l176 258h252l-268 -258h-160zM135 0v997h275v-997h-275z" />
<glyph unicode="&#xee;" horiz-adv-x="544" d="M-41 1108l209 258h209l207 -258h-187l-125 164l-135 -164h-178zM135 0v997h275v-997h-275z" />
<glyph unicode="&#xef;" horiz-adv-x="544" d="M20 1108v217h211v-217h-211zM135 0v997h275v-997h-275zM315 1108v217h211v-217h-211z" />
<glyph unicode="&#xf0;" horiz-adv-x="1196" d="M68 500q0 229 140 370.5t367 141.5q4 0 70 -4q-78 63 -192 120l-199 -133l-78 115l121 82q-35 12 -152 49l62 162q119 -20 289 -78l239 162l78 -115l-162 -108l21 -11q166 -90 262 -198q193 -217 192 -516q0 -266 -139 -409.5t-401 -143.5q-242 0 -380 137t-138 377z M348 500q0 -303 250 -303q244 0 244 303t-252 303q-242 0 -242 -303z" />
<glyph unicode="&#xf1;" horiz-adv-x="1183" d="M135 0v997h529q215 0 307 -88t92 -295v-614h-275v645q0 139 -141 139h-237v-784h-275zM229 1126q37 219 195 220q51 0 158 -48q78 -35 112 -34q55 0 78 86h105q-37 -213 -185 -213q-49 0 -178 49q-70 27 -102 26q-55 0 -80 -86h-103z" />
<glyph unicode="&#xf2;" horiz-adv-x="1191" d="M68 500q0 236 142 374t384 138q250 0 389 -138.5t139 -386.5q0 -233 -143 -367t-393 -134q-242 0 -380 137t-138 377zM279 1366h253l183 -258h-164zM348 498q0 -301 250 -301q244 0 244 301q0 303 -252 303q-242 0 -242 -303z" />
<glyph unicode="&#xf3;" horiz-adv-x="1191" d="M68 500q0 236 142 374t384 138q250 0 389 -138.5t139 -386.5q0 -233 -143 -367t-393 -134q-242 0 -380 137t-138 377zM348 498q0 -301 250 -301q244 0 244 301q0 303 -252 303q-242 0 -242 -303zM481 1108l176 258h252l-268 -258h-160z" />
<glyph unicode="&#xf4;" horiz-adv-x="1191" d="M68 500q0 236 142 374t384 138q250 0 389 -138.5t139 -386.5q0 -233 -143 -367t-393 -134q-242 0 -380 137t-138 377zM283 1108l209 258h208l207 -258h-186l-125 164l-135 -164h-178zM348 498q0 -301 250 -301q244 0 244 301q0 303 -252 303q-242 0 -242 -303z" />
<glyph unicode="&#xf5;" horiz-adv-x="1191" d="M68 500q0 236 142 374t384 138q250 0 389 -138.5t139 -386.5q0 -233 -143 -367t-393 -134q-242 0 -380 137t-138 377zM272 1126q37 219 195 220q51 0 158 -48q78 -35 112 -34q55 0 78 86h105q-37 -213 -185 -213q-49 0 -178 49q-70 27 -102 26q-55 0 -80 -86h-103z M348 498q0 -301 250 -301q244 0 244 301q0 303 -252 303q-242 0 -242 -303z" />
<glyph unicode="&#xf6;" horiz-adv-x="1191" d="M68 500q0 236 142 374t384 138q250 0 389 -138.5t139 -386.5q0 -233 -143 -367t-393 -134q-242 0 -380 137t-138 377zM295 1108v217h211v-217h-211zM348 498q0 -301 250 -301q244 0 244 301q0 303 -252 303q-242 0 -242 -303zM682 1108v217h211v-217h-211z" />
<glyph unicode="&#xf7;" d="M240 586v223h995v-223h-995zM590 346q0 61 43 104.5t104 43.5t104.5 -43t43.5 -105q0 -61 -43 -104t-105 -43q-61 0 -104 43t-43 104zM590 1047q0 61 43 104t104 43t104.5 -43t43.5 -104t-43 -104.5t-105 -43.5q-61 0 -104 43.5t-43 104.5z" />
<glyph unicode="&#xf8;" horiz-adv-x="1191" d="M68 498q0 236 142 375t384 139q133 0 246 -43l41 59h194l-102 -145q150 -156 149 -398q0 -233 -143 -367t-393 -134q-129 0 -238 45l-43 -62h-194l102 146q-145 135 -145 385zM348 492q0 -104 29 -164l319 456q-45 18 -108 19q-240 0 -240 -311zM492 213q47 -18 98 -18 q252 0 252 303q0 102 -29 174z" />
<glyph unicode="&#xf9;" horiz-adv-x="1196" d="M121 383v614h274v-641q0 -143 131 -143h258v784h275v-997h-539q-215 0 -307 88t-92 295zM281 1366h254l182 -258h-164z" />
<glyph unicode="&#xfa;" horiz-adv-x="1196" d="M121 383v614h274v-641q0 -143 131 -143h258v784h275v-997h-539q-215 0 -307 88t-92 295zM483 1108l176 258h252l-268 -258h-160z" />
<glyph unicode="&#xfb;" horiz-adv-x="1196" d="M121 383v614h274v-641q0 -143 131 -143h258v784h275v-997h-539q-215 0 -307 88t-92 295zM285 1108l209 258h208l207 -258h-186l-125 164l-135 -164h-178z" />
<glyph unicode="&#xfc;" horiz-adv-x="1196" d="M121 383v614h274v-641q0 -143 131 -143h258v784h275v-997h-539q-215 0 -307 88t-92 295zM297 1108v217h211v-217h-211zM684 1108v217h211v-217h-211z" />
<glyph unicode="&#xfd;" horiz-adv-x="1175" d="M121 -141h489q84 0 116 21.5t36 82.5q0 10 2 37h-244q-213 0 -309 102q-61 66 -80 158q-10 53 -10 180v557h274v-530q0 -156 28 -205t116 -49h225v784h274v-977q0 -197 -101 -285.5t-327 -88.5h-489v213zM473 1108l174 258h252l-266 -258h-160z" />
<glyph unicode="&#xfe;" horiz-adv-x="1208" d="M135 -375v1741h275v-369h204q123 0 185 -12q92 -18 164 -74q178 -139 178 -428q0 -219 -129 -351t-361 -132h-241v-375h-275zM410 213h168q283 0 282 287q0 285 -262 284h-188v-571z" />
<glyph unicode="&#xff;" horiz-adv-x="1175" d="M121 -141h489q84 0 116 21.5t36 82.5q0 10 2 37h-244q-213 0 -309 102q-61 66 -80 158q-10 53 -10 180v557h274v-530q0 -156 28 -205t116 -49h225v784h274v-977q0 -197 -101 -285.5t-327 -88.5h-489v213zM287 1108v217h211v-217h-211zM674 1108v217h211v-217h-211z" />
<glyph unicode="&#x152;" horiz-adv-x="2277" d="M66 676q0 700 673 700q358 0 518 -182q84 96 181.5 134t257.5 38h491v-244h-379q-147 0 -215.5 -20.5t-113.5 -79.5q-31 -41 -41.5 -80t-18.5 -141h768v-244h-768q14 -174 103.5 -243.5t298.5 -69.5h366v-244h-379q-229 0 -347 37t-204 135q-156 -180 -501 -180 q-338 0 -514 174t-176 510zM385 686q0 -242 87 -353.5t273 -111.5q348 0 349 463q0 461 -349 461q-190 0 -275 -108.5t-85 -350.5z" />
<glyph unicode="&#x153;" horiz-adv-x="1837" d="M68 500q0 236 142 374t384 138q266 0 395 -148q68 74 151 103.5t220 29.5h385v-213h-365q-113 0 -158.5 -37.5t-54.5 -140.5h578v-213h-578q8 -100 61.5 -140t180.5 -40h336v-213h-365q-141 0 -222 29.5t-163 107.5q-141 -152 -409 -151q-244 0 -381 136t-137 378z M348 500q0 -303 242 -303q252 0 252 303t-252 303q-242 0 -242 -303z" />
<glyph unicode="&#x178;" horiz-adv-x="1339" d="M6 1366h342l314 -532l329 532h344l-532 -778v-588h-291v598zM360 1468v215h220v-215h-220zM764 1468v215h217v-215h-217z" />
<glyph unicode="&#x2c6;" horiz-adv-x="1024" d="M199 1108l209 258h208l207 -258h-186l-125 164l-135 -164h-178z" />
<glyph unicode="&#x2dc;" horiz-adv-x="1024" d="M188 1126q37 219 195 220q51 0 158 -48q78 -35 112 -34q55 0 78 86h105q-37 -213 -185 -213q-49 0 -178 49q-70 27 -102 26q-55 0 -80 -86h-103z" />
<glyph unicode="&#x2013;" d="M272 446v205h928v-205h-928z" />
<glyph unicode="&#x2014;" horiz-adv-x="1427" d="M0 446v205h1427v-205h-1427z" />
<glyph unicode="&#x2018;" horiz-adv-x="479" d="M104 819v238l158 309h125l-125 -281h90v-266h-248z" />
<glyph unicode="&#x2019;" horiz-adv-x="479" d="M90 819l125 281h-90v266h248v-238l-158 -309h-125z" />
<glyph unicode="&#x201a;" horiz-adv-x="479" d="M90 -281l125 281h-90v266h248v-237l-158 -310h-125z" />
<glyph unicode="&#x201c;" horiz-adv-x="876" d="M104 819v238l158 309h125l-125 -281h90v-266h-248zM504 819v238l158 309h124l-124 -281h90v-266h-248z" />
<glyph unicode="&#x201d;" horiz-adv-x="876" d="M90 819l125 281h-90v266h248v-238l-158 -309h-125zM489 819l125 281h-90v266h248v-238l-158 -309h-125z" />
<glyph unicode="&#x201e;" horiz-adv-x="876" d="M90 -281l125 281h-90v266h248v-237l-158 -310h-125zM489 -281l125 281h-90v266h248v-237l-158 -310h-125z" />
<glyph unicode="&#x2022;" horiz-adv-x="1366" d="M401 696q0 117 84 200t203 83q115 0 198 -83t83 -200t-83 -200.5t-198 -83.5q-119 0 -203 82.5t-84 201.5z" />
<glyph unicode="&#x2026;" horiz-adv-x="1376" d="M104 0v266h248v-266h-248zM563 0v266h248v-266h-248zM1022 0v266h248v-266h-248z" />
<glyph unicode="&#x2039;" horiz-adv-x="460" d="M86 367v247l272 222v-244l-143 -100l143 -97v-243z" />
<glyph unicode="&#x203a;" horiz-adv-x="460" d="M102 152v243l144 97l-144 100v244l273 -222v-247z" />
<glyph unicode="&#x2122;" horiz-adv-x="1839" d="M6 1219v147h719v-147h-268v-619h-189v619h-262zM813 600v766h266l201 -573l209 573h266v-766h-180v535l-203 -535h-188l-191 533v-533h-180z" />
<glyph unicode="&#xe000;" horiz-adv-x="995" d="M0 995h995v-995h-995v995z" />
<glyph unicode="&#xfb01;" horiz-adv-x="1323" d="M913 0v997h275v-997h-275zM913 1100v266h275v-266h-275zM37 784v213h180v60q0 162 68.5 235.5t220.5 73.5h242v-213h-140q-117 0 -116 -111v-45h256v-213h-256v-784h-275v784h-180z" />
<glyph unicode="&#xfb02;" horiz-adv-x="1323" d="M913 0v1366h275v-1366h-275zM37 784v213h180v60q0 162 68.5 235.5t220.5 73.5h242v-213h-140q-117 0 -116 -111v-45h256v-213h-256v-784h-275v784h-180z" />
<glyph unicode="&#xfb03;" horiz-adv-x="2101" d="M1691 0v997h275v-997h-275zM1691 1100v266h275v-266h-275zM815 784v213h180v60q0 162 68.5 235.5t220.5 73.5h242v-213h-140q-117 0 -116 -111v-45h256v-213h-256v-784h-275v784h-180zM37 784v213h180v60q0 162 68.5 235.5t220.5 73.5h242v-213h-140q-117 0 -116 -111 v-45h256v-213h-256v-784h-275v784h-180z" />
<glyph unicode="&#xfb04;" horiz-adv-x="2101" d="M1691 0v1366h275v-1366h-275zM815 784v213h180v60q0 162 68.5 235.5t220.5 73.5h242v-213h-140q-117 0 -116 -111v-45h256v-213h-256v-784h-275v784h-180zM37 784v213h180v60q0 162 68.5 235.5t220.5 73.5h242v-213h-140q-117 0 -116 -111v-45h256v-213h-256v-784h-275 v784h-180z" />
</font>
</defs>
</svg>
